<svg version="1.1" id="Layer_1" xmlns="http://www.w3.org/2000/svg" xmlns:xlink="http://www.w3.org/1999/xlink" x="0px" y="0px"
	 width="100%" viewBox="0 0 1024 1024" enable-background="new 0 0 1024 1024" xml:space="preserve">
<path fill="#000000" opacity="1.000000" stroke="none" 
	d="
M303.199524,543.855591 
	C300.548920,561.857727 297.930359,579.416199 295.366699,596.982666 
	C294.241364,604.693726 293.405426,612.450806 292.124817,620.134766 
	C289.815033,633.994141 277.449310,643.053162 263.355957,641.103638 
	C236.223099,637.350464 209.121658,633.370667 181.997543,629.553345 
	C157.498398,626.105408 133.000397,622.643311 108.474892,619.390869 
	C93.424576,617.395020 83.609108,604.579102 85.828354,589.614868 
	C90.526787,557.933716 95.081543,526.231323 99.740395,494.544312 
	C103.965347,465.808441 108.255066,437.082031 112.501007,408.349243 
	C112.913254,405.559479 113.032120,402.715210 113.603859,399.962036 
	C116.703476,385.035919 129.109406,376.601746 144.244354,378.829987 
	C173.463623,383.131866 202.688858,387.395538 231.929031,391.552551 
	C254.102570,394.704865 276.312225,397.602692 298.488281,400.737762 
	C312.475769,402.715210 321.815857,415.694366 319.765015,429.647797 
	C314.867920,462.966858 310.092133,496.303741 305.265533,529.633179 
	C304.600159,534.227905 303.924713,538.821167 303.199524,543.855591 
M216.760239,411.104492 
	C216.273834,410.989746 215.793030,410.834961 215.300232,410.765991 
	C192.599655,407.591736 169.862457,404.655701 147.211288,401.161804 
	C135.570541,399.366211 135.709671,399.926697 134.156143,411.437225 
	C131.558838,430.681427 128.498764,449.862854 125.679504,469.077484 
	C122.547714,490.421967 119.479111,511.775757 116.361282,533.122314 
	C113.554710,552.337769 110.769630,571.556580 107.859642,590.756470 
	C107.140671,595.500183 108.304230,597.774353 112.993172,598.473328 
	C125.136948,600.283447 137.303253,601.944641 149.467072,603.617859 
	C170.689575,606.537048 191.923645,609.372864 213.140198,612.334473 
	C229.912018,614.675598 246.661713,617.174744 263.428162,619.554932 
	C267.806641,620.176575 270.137146,618.532043 270.813995,613.770081 
	C273.920319,591.916138 277.394226,570.114807 280.582397,548.272095 
	C286.407867,508.360687 292.120911,468.432831 297.892395,428.513489 
	C298.553650,423.939636 296.874329,421.957275 292.160126,421.357880 
	C280.634125,419.892395 269.121246,418.322327 257.608734,416.752777 
	C244.283310,414.936035 230.963943,413.074829 216.760239,411.104492 
z"/>
<path fill="#000000" opacity="1.000000" stroke="none" 
	d="
M449.842804,549.994141 
	C443.829681,529.129150 437.921753,508.657715 431.994507,488.191925 
	C430.245178,482.151825 430.531464,481.758942 437.036926,481.715240 
	C450.016296,481.627991 450.025360,481.625458 453.454651,493.951019 
	C456.130310,503.567932 458.765686,513.196106 461.461060,522.807434 
	C461.754517,523.853882 462.326996,524.822083 463.318787,527.070618 
	C466.027283,517.551697 468.398773,509.300201 470.718292,501.034149 
	C472.112305,496.066376 473.495148,491.093353 474.748657,486.089050 
	C475.504547,483.071533 477.114441,481.754333 480.360901,481.643951 
	C493.818604,481.186279 493.885468,481.077820 497.715668,494.128693 
	C500.793518,504.615997 503.675415,515.160767 506.881348,526.520142 
	C509.132141,522.796570 509.607788,519.347961 510.519592,516.104309 
	C513.266113,506.333527 515.965454,496.546265 518.447693,486.706024 
	C519.383057,482.997894 521.244873,481.644104 525.102112,481.626434 
	C539.562134,481.560089 539.533752,481.431763 535.510315,495.411255 
	C529.985901,514.605896 524.419128,533.789368 519.085938,553.037292 
	C517.999084,556.959839 516.089050,558.322998 512.058960,558.311523 
	C498.270020,558.272095 498.212708,558.421387 494.275940,545.576660 
	C491.690491,537.140930 489.286377,528.649536 486.832489,520.173950 
	C486.428589,518.778809 486.443115,517.218506 484.571442,515.926147 
	C482.868347,521.630127 481.185974,527.114441 479.596741,532.625610 
	C477.659790,539.342651 475.651581,546.045105 473.964478,552.826050 
	C472.943146,556.931152 470.797455,558.780518 466.522644,558.258728 
	C464.551727,558.018127 462.527649,558.214417 460.527679,558.210693 
	C452.249054,558.195312 452.249054,558.195068 449.842804,549.994141 
z"/>
<path fill="#000000" opacity="1.000000" stroke="none" 
	d="
M636.013672,484.757812 
	C658.102539,497.216858 658.946289,530.471252 645.828552,546.538025 
	C637.684265,556.513245 617.499878,565.332458 598.923706,554.216919 
	C597.719116,558.698608 598.456787,563.151428 598.334656,567.529663 
	C598.200073,572.353760 598.116333,577.195068 598.372620,582.009583 
	C598.596558,586.218628 596.846252,587.717468 592.799072,587.421814 
	C589.818481,587.204102 586.786682,587.149780 583.817322,587.435059 
	C579.038452,587.894104 577.475952,586.046265 577.523682,581.219482 
	C577.745728,558.746582 577.641724,536.270447 577.651062,513.795471 
	C577.654663,505.138428 577.897583,496.471527 577.553223,487.828156 
	C577.355774,482.872223 579.276123,481.248352 583.936096,481.659851 
	C586.744324,481.907806 589.593628,481.756012 592.422302,481.688751 
	C595.832520,481.607697 599.082764,481.642944 598.378967,486.853333 
	C610.787903,478.058533 623.115601,478.912964 636.013672,484.757812 
M632.768066,527.083801 
	C634.113892,523.372192 633.955383,519.500183 633.486267,515.733276 
	C632.237000,505.702026 623.759521,498.689392 614.157227,499.441956 
	C604.815308,500.174072 598.355164,507.609558 598.242371,517.801819 
	C598.212952,520.461243 598.171265,523.128052 598.324280,525.780518 
	C598.720886,532.653748 603.800232,538.363098 610.543274,539.660889 
	C620.661194,541.608215 628.265442,537.535583 632.768066,527.083801 
z"/>
<path fill="#000000" opacity="1.000000" stroke="none" 
	d="
M791.828186,555.354614 
	C769.845398,567.530334 742.337830,551.980347 740.766357,526.713928 
	C740.217163,517.883545 740.396545,509.113617 744.111816,500.729858 
	C752.242981,482.381134 774.711426,474.633514 792.559265,484.179016 
	C793.247925,484.547333 793.997131,484.802460 795.675476,485.519073 
	C795.675476,477.956177 795.626099,471.039886 795.685852,464.124573 
	C795.808777,449.901978 793.822266,451.841980 808.175049,451.684784 
	C809.674133,451.668396 811.174133,451.730835 812.673096,451.710754 
	C815.436401,451.673767 816.445984,453.052399 816.440613,455.756683 
	C816.376282,488.245911 816.344604,520.735291 816.388000,553.224487 
	C816.392883,556.872864 814.910706,558.380493 811.304321,558.224487 
	C807.978333,558.080627 804.640747,558.168091 801.308838,558.203796 
	C798.122864,558.237854 794.882812,558.419434 795.397705,553.225586 
	C793.799377,554.177856 792.957642,554.679382 791.828186,555.354614 
M761.180847,524.107483 
	C762.350098,533.327393 767.348267,538.771729 776.123108,540.383301 
	C783.563354,541.749817 791.167908,538.199036 794.452026,531.211731 
	C797.080261,525.619995 796.588135,519.504333 795.925354,513.529358 
	C794.538147,501.021942 779.744385,494.364899 769.409058,501.543762 
	C761.729248,506.878052 760.305908,514.617249 761.180847,524.107483 
z"/>
<path fill="#000000" opacity="1.000000" stroke="none" 
	d="
M375.229553,479.061554 
	C373.938934,484.712158 376.342102,488.252319 381.005157,490.141785 
	C386.239075,492.262482 391.657257,493.937317 397.024780,495.717194 
	C402.878052,497.658173 408.705200,499.617371 414.123077,502.653442 
	C433.642700,513.591858 435.784760,535.749023 418.676727,550.136841 
	C402.529480,563.716614 375.685425,562.240601 361.208649,546.959839 
	C356.850830,542.359985 354.141327,536.880066 352.974152,530.682922 
	C351.983612,525.423645 353.224091,524.004944 358.518433,523.946838 
	C360.018005,523.930359 361.528961,524.091919 363.016174,523.961121 
	C369.311615,523.407410 373.622711,524.145935 376.505829,531.669800 
	C380.771118,542.800842 400.090393,543.368713 406.900940,533.413879 
	C410.331573,528.399475 408.975525,522.898071 403.229034,519.406982 
	C398.346222,516.440552 392.846436,514.944946 387.419067,513.328552 
	C381.987640,511.710876 376.607239,509.960754 371.489777,507.488556 
	C360.272034,502.069244 352.866852,494.066681 353.633026,480.704498 
	C354.361298,468.003693 361.409698,459.735291 372.666687,454.888672 
	C387.340210,448.571106 408.399841,450.275879 420.076843,463.936401 
	C423.412292,467.838409 425.561737,472.215881 426.793304,477.153870 
	C427.734161,480.926422 426.296326,482.513275 422.533600,482.396088 
	C420.202484,482.323486 417.851440,482.195221 415.537537,482.404083 
	C410.221588,482.884033 406.637970,481.789124 403.530731,476.348846 
	C397.684937,466.113953 377.768219,468.787018 375.229553,479.061554 
z"/>
<path fill="#000000" opacity="1.000000" stroke="none" 
	d="
M727.171753,545.239258 
	C715.274353,559.114319 697.670471,563.075073 680.762451,555.928711 
	C666.198425,549.773010 656.365234,532.838013 657.930115,516.606201 
	C659.603699,499.246735 671.941956,484.911987 688.417297,481.185760 
	C709.115967,476.504333 730.744263,491.631012 733.332520,512.599121 
	C734.905273,525.340454 734.905273,525.336792 721.880493,525.333801 
	C709.392029,525.330994 696.903381,525.307251 684.415100,525.352783 
	C679.159607,525.371948 678.476501,526.537476 680.713867,531.270691 
	C686.082520,542.628357 701.798584,545.788513 711.231689,536.957092 
	C714.457947,533.936646 716.897156,533.669434 720.307495,535.802795 
	C721.992981,536.857056 723.794922,537.825378 725.671021,538.453979 
	C729.727783,539.813232 730.157715,541.908997 727.171753,545.239258 
M691.791626,498.210449 
	C686.436096,499.883942 682.580261,503.052856 680.479431,509.583405 
	C690.650269,509.583405 700.062561,509.832458 709.450134,509.458801 
	C713.124695,509.312561 711.643921,506.507202 710.548645,504.655579 
	C707.412964,499.354218 699.907349,496.620605 691.791626,498.210449 
z"/>
<path fill="#000000" opacity="1.000000" stroke="none" 
	d="
M883.184937,519.059692 
	C883.177002,530.545532 883.081970,541.542419 883.204224,552.536865 
	C883.248962,556.558838 881.702942,558.287048 877.610352,558.218750 
	C859.425659,557.914978 862.894958,560.420410 862.708679,543.663391 
	C862.501282,525.005859 862.779358,506.343048 862.581299,487.685333 
	C862.533142,483.142303 863.922852,481.209351 868.574768,481.646484 
	C871.547546,481.925812 874.575928,481.839966 877.564331,481.663422 
	C880.726257,481.476593 883.182617,482.127563 883.716919,486.166779 
	C890.866028,481.245239 898.298828,479.759857 906.361084,480.542999 
	C919.951355,481.863129 929.601074,490.788391 931.208191,504.290649 
	C933.163330,520.716736 931.806274,537.230591 932.132385,553.701904 
	C932.195007,556.866882 930.542908,558.196106 927.479065,558.161255 
	C908.198975,557.942139 911.998779,560.781067 911.677856,543.546692 
	C911.488647,533.387146 911.788025,523.218201 911.574829,513.059631 
	C911.383362,503.938354 906.317383,499.089417 897.525452,499.068176 
	C889.124451,499.047852 883.561157,504.482330 883.227112,513.072693 
	C883.155945,514.902832 883.195435,516.737305 883.184937,519.059692 
z"/>
<path fill="#000000" opacity="1.000000" stroke="none" 
	d="
M833.282715,558.155762 
	C829.141174,557.665100 829.665710,554.842651 829.663757,552.401855 
	C829.645630,529.737671 829.657227,507.073486 829.657410,484.409302 
	C829.657532,475.243652 829.763794,466.075897 829.593262,456.913361 
	C829.521423,453.053558 830.917419,451.406738 834.842407,451.646362 
	C838.329285,451.859192 841.841797,451.790558 845.337585,451.678467 
	C848.734802,451.569550 850.202698,453.113403 850.177063,456.456268 
	C850.125916,463.121704 850.181885,469.787903 850.181824,476.453766 
	C850.181458,501.284302 850.186218,526.114868 850.166748,550.945374 
	C850.161255,557.903320 849.874023,558.154785 842.751953,558.185730 
	C839.752319,558.198730 836.752502,558.183899 833.282715,558.155762 
z"/>
<path fill="#000000" opacity="1.000000" stroke="none" 
	d="
M545.112915,526.000000 
	C545.097473,513.010376 545.198242,500.518890 544.998840,488.032135 
	C544.924622,483.386414 546.420471,481.443329 551.343506,481.623596 
	C567.346863,482.209503 565.920044,478.675598 565.966187,496.212646 
	C566.014832,514.697205 566.004395,533.182129 565.973572,551.666748 
	C565.963440,557.743591 565.497131,558.149536 559.398376,558.206665 
	C556.567627,558.233215 553.726257,558.069336 550.907776,558.259583 
	C546.653259,558.546753 544.876404,556.864868 544.991943,552.477112 
	C545.219727,543.823059 545.091064,535.159607 545.112915,526.000000 
z"/>
<path fill="#000000" opacity="1.000000" stroke="none" 
	d="
M548.020874,473.210083 
	C543.376343,468.784210 542.485168,463.860565 544.884338,458.435669 
	C546.915833,453.842072 550.824402,451.745026 555.654053,451.795135 
	C560.749084,451.847961 564.433411,454.439514 566.485962,459.185638 
	C568.349060,463.493530 567.301453,468.778656 563.941895,472.047241 
	C559.861816,476.016846 554.393799,476.506866 548.020874,473.210083 
z"/>
<path fill="#000000" opacity="1.000000" stroke="none" 
	d="
M229.816803,516.988159 
	C242.873840,524.139099 250.063492,534.841736 251.994385,549.220642 
	C253.300308,558.945557 248.782990,563.226440 239.133347,561.822876 
	C216.303619,558.502014 193.431015,555.476624 170.579803,552.302490 
	C162.197495,551.138245 153.788422,550.105835 145.461533,548.620789 
	C137.445831,547.191284 134.924896,542.773987 137.033325,534.893921 
	C140.960236,520.217468 156.925095,508.077118 172.247025,507.591919 
	C183.668106,507.230255 194.677155,509.949341 205.873123,511.256836 
	C213.950821,512.200073 222.097183,512.917786 229.816803,516.988159 
z"/>
<path fill="#000000" opacity="1.000000" stroke="none" 
	d="
M227.937653,445.063171 
	C237.740631,456.091125 239.119186,468.335327 233.291077,481.002991 
	C227.730789,493.088440 217.271652,498.443939 204.196350,498.216339 
	C188.849106,497.949249 175.690826,485.297058 174.615356,471.024994 
	C172.996216,449.538544 187.798111,438.325104 200.596375,436.530701 
	C211.060196,435.063629 219.922699,437.904175 227.937653,445.063171 
z"/>
<path fill="#000000" opacity="1.000000" stroke="none" 
	d="
M193.456970,572.394653 
	C197.173691,572.940735 200.485168,573.251282 203.740997,573.859741 
	C209.283600,574.895447 212.784607,579.953735 211.756180,585.174316 
	C210.628448,590.898926 206.295120,593.880615 200.463425,593.041260 
	C182.251862,590.419983 164.033951,587.842773 145.822205,585.222839 
	C137.779587,584.065796 134.692673,581.227539 134.669662,575.089355 
	C134.647430,569.158936 137.835587,565.837524 143.786102,565.651550 
	C150.471603,565.442566 156.944061,567.210632 163.530518,567.931641 
	C173.403427,569.012268 183.198502,570.803772 193.456970,572.394653 
z"/>
</svg>